
      <svg data-logo="logo" xmlns="http://www.w3.org/2000/svg" viewBox="0 0 282 42">
        <g id="logogram" transform="translate(0, 1) rotate(0) "><path d="M40 13.4683C40.0001 10.7823 39.1891 8.1589 37.673 5.9417C36.1569 3.72451 34.0065 2.01688 31.5035 1.04252C29.0005 0.0681476 26.2615 -0.127534 23.6455 0.48109C21.0293 1.08971 18.658 2.47428 16.8421 4.45341H0V40H35.5601V23.3873C36.9557 22.139 38.0726 20.6104 38.8377 18.9012C39.6027 17.192 39.9988 15.3409 40 13.4683ZM33.1579 13.4683C33.1606 14.7553 32.7814 16.0143 32.0683 17.0858C31.3551 18.1572 30.3402 18.9931 29.1518 19.4874C27.9634 19.9819 26.6552 20.1127 25.3924 19.8631C24.1298 19.6137 22.9695 18.9953 22.0584 18.0861C21.1474 17.1769 20.5266 16.0179 20.2745 14.7557C20.0224 13.4936 20.1505 12.185 20.6424 10.9957C21.1343 9.80626 21.968 8.78957 23.0379 8.07423C24.108 7.35888 25.3661 6.97705 26.6532 6.97703C28.376 6.97703 30.0285 7.6605 31.2479 8.87745C32.4675 10.0944 33.1544 11.7455 33.1579 13.4683ZM28.7179 33.1579H6.84211V11.2955H13.5088C13.38 12.0128 13.3123 12.7397 13.3063 13.4683C13.31 17.007 14.7173 20.3997 17.2196 22.902C19.7217 25.4042 23.1144 26.8116 26.6532 26.8151C27.3451 26.8115 28.0355 26.7528 28.7179 26.6397V33.1579Z" fill="#394149"/></g>
        <g id="logotype" transform="translate(46, 7.5)"><path fill="#111111" d="M12.60 27L6.84 27L15.54 1.54L22.37 1.54L31.29 27L25.50 27L21.42 14.71Q20.68 12.34 19.92 9.51Q19.16 6.68 18.32 3.33L18.32 3.33L19.45 3.33Q18.65 6.70 17.94 9.54Q17.23 12.39 16.53 14.71L16.53 14.71L12.60 27ZM25.86 21.09L12.27 21.09L12.27 17.00L25.86 17.00L25.86 21.09ZM32.16 1.54L37.37 1.54L37.37 27L32.16 27L32.16 1.54ZM50.94 27L45.73 27L45.73 1.54L62.48 1.54L62.48 5.86L50.94 5.86L50.94 12.97L61.35 12.97L61.35 17.22L50.94 17.22L50.94 27ZM72.42 27.38L72.42 27.38Q69.55 27.38 67.45 26.14Q65.34 24.90 64.21 22.68Q63.07 20.47 63.07 17.53L63.07 17.53Q63.07 14.56 64.21 12.35Q65.34 10.13 67.45 8.89Q69.55 7.65 72.42 7.65L72.42 7.65Q75.31 7.65 77.40 8.89Q79.50 10.13 80.63 12.35Q81.77 14.56 81.77 17.53L81.77 17.53Q81.77 20.47 80.63 22.68Q79.50 24.90 77.40 26.14Q75.31 27.38 72.42 27.38ZM72.42 23.34L72.42 23.34Q73.79 23.34 74.71 22.58Q75.63 21.82 76.09 20.50Q76.56 19.17 76.56 17.52L76.56 17.52Q76.56 15.82 76.09 14.51Q75.63 13.19 74.71 12.44Q73.79 11.69 72.42 11.69L72.42 11.69Q71.05 11.69 70.14 12.44Q69.22 13.19 68.76 14.51Q68.30 15.82 68.30 17.52L68.30 17.52Q68.30 19.17 68.76 20.50Q69.22 21.82 70.14 22.58Q71.05 23.34 72.42 23.34ZM88.19 27L83.06 27L83.06 7.89L88.02 7.89L88.02 11.23L88.23 11.23Q88.76 9.45 89.99 8.54Q91.23 7.64 92.84 7.64L92.84 7.64Q93.23 7.64 93.69 7.68Q94.14 7.72 94.50 7.81L94.50 7.81L94.50 12.39Q94.16 12.27 93.51 12.20Q92.86 12.13 92.28 12.13L92.28 12.13Q91.11 12.13 90.17 12.64Q89.23 13.14 88.71 14.04Q88.19 14.93 88.19 16.13L88.19 16.13L88.19 27ZM100.17 27L95.04 27L95.04 7.89L99.79 7.89L100.05 12.64L99.67 12.64Q100.12 10.88 100.98 9.77Q101.84 8.66 103.01 8.13Q104.17 7.60 105.45 7.60L105.45 7.60Q107.52 7.60 108.78 8.91Q110.05 10.22 110.65 12.95L110.65 12.95L110.05 12.95Q110.47 11.12 111.44 9.94Q112.41 8.75 113.73 8.18Q115.06 7.60 116.51 7.60L116.51 7.60Q118.27 7.60 119.64 8.37Q121.02 9.14 121.81 10.59Q122.61 12.03 122.61 14.11L122.61 14.11L122.61 27L117.48 27L117.48 15.09Q117.48 13.46 116.60 12.68Q115.72 11.89 114.44 11.89L114.44 11.89Q113.48 11.89 112.77 12.31Q112.06 12.73 111.68 13.48Q111.30 14.23 111.30 15.24L111.30 15.24L111.30 27L106.34 27L106.34 14.95Q106.34 13.55 105.51 12.72Q104.68 11.89 103.37 11.89L103.37 11.89Q102.46 11.89 101.73 12.30Q101.01 12.71 100.59 13.51Q100.17 14.30 100.17 15.45L100.17 15.45L100.17 27ZM141.59 27L130.84 27L130.84 1.54L140.94 1.54Q143.74 1.54 145.62 2.38Q147.49 3.23 148.42 4.70Q149.35 6.17 149.35 8.08L149.35 8.08Q149.35 9.59 148.75 10.70Q148.15 11.82 147.12 12.53Q146.09 13.24 144.77 13.55L144.77 13.55L144.77 13.81Q146.21 13.86 147.48 14.62Q148.75 15.38 149.55 16.74Q150.34 18.10 150.34 19.99L150.34 19.99Q150.34 21.99 149.35 23.58Q148.36 25.17 146.42 26.09Q144.48 27 141.59 27L141.59 27ZM136.05 15.81L136.05 22.71L140.57 22.71Q142.86 22.71 143.92 21.82Q144.98 20.93 144.98 19.50L144.98 19.50Q144.98 18.40 144.45 17.57Q143.93 16.75 142.98 16.28Q142.02 15.81 140.70 15.81L140.70 15.81L136.05 15.81ZM136.05 5.79L136.05 12.23L140.17 12.23Q141.28 12.23 142.17 11.83Q143.06 11.43 143.57 10.69Q144.07 9.94 144.07 8.92L144.07 8.92Q144.07 7.53 143.09 6.66Q142.10 5.79 140.28 5.79L140.28 5.79L136.05 5.79ZM158.18 27.24L158.18 27.24Q156.20 27.24 154.71 26.38Q153.23 25.51 152.42 23.90Q151.60 22.28 151.60 20.04L151.60 20.04L151.60 7.89L156.73 7.89L156.73 19.16Q156.73 20.93 157.65 21.94Q158.58 22.95 160.18 22.95L160.18 22.95Q161.28 22.95 162.11 22.48Q162.95 22.01 163.42 21.11Q163.89 20.22 163.89 18.95L163.89 18.95L163.89 7.89L169.02 7.89L169.02 27L164.18 27L164.11 22.23L164.40 22.23Q163.65 24.64 162.11 25.94Q160.56 27.24 158.18 27.24ZM176.25 27L171.12 27L171.12 7.89L176.25 7.89L176.25 27ZM173.68 5.40L173.68 5.40Q172.52 5.40 171.70 4.63Q170.88 3.86 170.88 2.77L170.88 2.77Q170.88 1.67 171.70 0.90Q172.52 0.13 173.68 0.13L173.68 0.13Q174.84 0.13 175.67 0.90Q176.50 1.66 176.50 2.77L176.50 2.77Q176.50 3.86 175.67 4.63Q174.84 5.40 173.68 5.40ZM178.33 1.54L183.46 1.54L183.46 27L178.33 27L178.33 1.54ZM192.53 27.32L192.53 27.32Q190.32 27.32 188.55 26.19Q186.79 25.05 185.76 22.86Q184.74 20.66 184.74 17.48L184.74 17.48Q184.74 14.22 185.79 12.03Q186.85 9.84 188.61 8.75Q190.37 7.65 192.49 7.65L192.49 7.65Q194.12 7.65 195.19 8.20Q196.27 8.75 196.94 9.55Q197.60 10.35 197.93 11.11L197.93 11.11L198.10 11.11L198.10 1.54L203.23 1.54L203.23 27L198.18 27L198.18 23.94L197.93 23.94Q197.59 24.71 196.91 25.49Q196.24 26.27 195.16 26.79Q194.08 27.32 192.53 27.32ZM194.10 23.21L194.10 23.21Q195.40 23.21 196.32 22.49Q197.24 21.77 197.72 20.48Q198.20 19.19 198.20 17.46L198.20 17.46Q198.20 15.72 197.73 14.45Q197.26 13.17 196.34 12.47Q195.42 11.76 194.10 11.76L194.10 11.76Q192.75 11.76 191.84 12.49Q190.92 13.23 190.46 14.51Q190.00 15.79 190.00 17.46L190.00 17.46Q190.00 19.14 190.47 20.44Q190.94 21.74 191.85 22.47Q192.77 23.21 194.10 23.21ZM213.96 27.38L213.96 27.38Q211.03 27.38 208.92 26.18Q206.80 24.98 205.66 22.78Q204.52 20.57 204.52 17.55L204.52 17.55Q204.52 14.59 205.65 12.37Q206.78 10.15 208.85 8.90Q210.91 7.65 213.70 7.65L213.70 7.65Q215.58 7.65 217.20 8.25Q218.83 8.85 220.06 10.06Q221.29 11.26 221.98 13.07Q222.67 14.88 222.67 17.34L222.67 17.34L222.67 18.78L206.63 18.78L206.63 15.57L220.16 15.57L217.77 16.42Q217.77 14.93 217.31 13.83Q216.86 12.73 215.96 12.12Q215.07 11.52 213.73 11.52L213.73 11.52Q212.42 11.52 211.49 12.13Q210.56 12.75 210.08 13.80Q209.60 14.85 209.60 16.20L209.60 16.20L209.60 18.47Q209.60 20.13 210.15 21.26Q210.71 22.39 211.71 22.95Q212.71 23.51 214.04 23.51L214.04 23.51Q214.95 23.51 215.68 23.26Q216.42 23.00 216.94 22.50Q217.46 21.99 217.73 21.26L217.73 21.26L222.38 22.13Q221.92 23.70 220.78 24.89Q219.63 26.08 217.91 26.73Q216.20 27.38 213.96 27.38ZM229.03 27L223.90 27L223.90 7.89L228.86 7.89L228.86 11.23L229.06 11.23Q229.59 9.45 230.83 8.54Q232.07 7.64 233.68 7.64L233.68 7.64Q234.07 7.64 234.52 7.68Q234.98 7.72 235.33 7.81L235.33 7.81L235.33 12.39Q234.99 12.27 234.34 12.20Q233.69 12.13 233.11 12.13L233.11 12.13Q231.95 12.13 231.01 12.64Q230.07 13.14 229.55 14.04Q229.03 14.93 229.03 16.13L229.03 16.13L229.03 27Z"/></g>
        
      </svg>
    